<svg xmlns="http://www.w3.org/2000/svg" viewBox="0 0 199.05 206.42"><defs><style>.cls-1{fill:#fff;}</style></defs><title>Logo-EBEC-Branca-reduzida</title><g id="Camada_2" data-name="Camada 2"><g id="Layer_1" data-name="Layer 1"><path class="cls-1" d="M68.93,93.41a9.85,9.85,0,1,1-9.82,9.85A9.85,9.85,0,0,1,68.93,93.41ZM54.06,70.91l12.37,9L56.61,93.43h0c-.15.19-.28.39-.42.58A15.71,15.71,0,0,0,54,108.13c.05.15.07.29.12.43.11.3.25.6.38.9s.11.3.18.45.1.18.15.27c.17.36.34.71.54,1v0c.11.18.24.35.36.53s.36.56.55.82l0,0,.1.16.3.37h0l9.72,13.4-12.32,8.95a40.32,40.32,0,0,0-51.33-8.63,104,104,0,0,1,0-47.34A40.34,40.34,0,0,0,54.06,70.91Z"/><path class="cls-1" d="M102.18,67.25A9.85,9.85,0,1,1,89.78,61,9.85,9.85,0,0,1,102.18,67.25ZM119,46.15,114.25,60.7l-15.9-5.16v0l-.67-.23a15.73,15.73,0,0,0-14.13,2.25c-.12.09-.24.15-.36.25s-.5.42-.74.63-.26.2-.38.31l-.21.23c-.29.27-.56.54-.83.84h0c-.14.16-.26.34-.39.5s-.43.51-.62.77a.06.06,0,0,1,0,0l-.12.14-.26.4v0L69.86,75.07l-12.32-9a40.29,40.29,0,0,0-7.65-51.48A103.9,103.9,0,0,1,94.92,0,40.34,40.34,0,0,0,119,46.15Z"/><path class="cls-1" d="M137.33,90.79A9.85,9.85,0,1,1,139.49,77,9.86,9.86,0,0,1,137.33,90.79Zm25.26,9.45h-15.3V83.52l0,0c0-.24,0-.49,0-.72a15.72,15.72,0,0,0-6.51-12.74c-.12-.08-.22-.18-.35-.27s-.55-.34-.83-.51-.26-.18-.41-.26-.19-.08-.28-.13c-.35-.19-.69-.36-1.06-.53l0,0-.59-.22c-.29-.11-.62-.24-.93-.34h0l-.17-.06-.46-.13h0l-15.75-5.13L124.62,48a40.3,40.3,0,0,0,46.59-23.19A104,104,0,0,1,199.05,63.1,40.33,40.33,0,0,0,162.59,100.24Z"/><path class="cls-1" d="M125.81,131.49a9.85,9.85,0,1,1,13.74-2.19A9.86,9.86,0,0,1,125.81,131.49Zm-1.19,26.95-4.72-14.56,15.9-5.17h0c.23-.06.45-.14.68-.22a15.68,15.68,0,0,0,10.1-10.12c.05-.14.11-.27.15-.41.09-.31.16-.63.23-1,0-.16.09-.31.12-.47s0-.21,0-.31c.07-.39.13-.77.17-1.17l0,0c0-.21,0-.43,0-.63s0-.67,0-1v-.22c0-.15,0-.32,0-.48l0,0V106.17h15.23a40.31,40.31,0,0,0,36.46,37.14,103.83,103.83,0,0,1-27.84,38.3A40.32,40.32,0,0,0,124.62,158.44Z"/><path class="cls-1" d="M83.54,133.11a9.85,9.85,0,1,1,6.33,12.39A9.85,9.85,0,0,1,83.54,133.11Zm-26,7.19,12.39-9,9.82,13.52v0c.13.2.28.39.42.58a15.7,15.7,0,0,0,12.74,6.48c.15,0,.29,0,.45,0,.32,0,.64,0,1-.07.16,0,.32,0,.48,0l.31-.06c.39,0,.77-.11,1.17-.2h0c.2,0,.41-.12.61-.17s.64-.17.95-.27h0l.18-.05.44-.17v0l15.75-5.11,4.7,14.49a40.3,40.3,0,0,0-24.06,46.15,104,104,0,0,1-45-14.63,40.33,40.33,0,0,0,7.65-51.48Z"/></g></g></svg>