<?xml version="1.0" encoding="utf-8"?>
<!-- Generator: Adobe Illustrator 16.0.0, SVG Export Plug-In . SVG Version: 6.00 Build 0)  -->
<!DOCTYPE svg PUBLIC "-//W3C//DTD SVG 1.1//EN" "http://www.w3.org/Graphics/SVG/1.1/DTD/svg11.dtd">
<svg version="1.1" id="Camada_1" xmlns="http://www.w3.org/2000/svg" xmlns:xlink="http://www.w3.org/1999/xlink" x="0px" y="0px"
	 width="120.152px" height="120.154px" viewBox="17.231 15.423 120.152 120.154"
	 enable-background="new 17.231 15.423 120.152 120.154" xml:space="preserve">
<title>rodas</title>
<path id="rightgear" fill="#7CA358" d="M137.384,71.224v8.551c-4.127,1.047-8.252,2.061-12.363,3.144
	c-2.01,0.534-4.084,0.506-4.838,3.483c-0.756,2.979-0.344,4.847,2.016,6.635c1.482,1.25,2.895,2.582,4.227,3.99
	c5.438,5.209,5.443,5.217,1.084,11.4c-0.258,0.281-0.557,0.521-0.885,0.713c-4.504-1.297-8.949-2.629-13.418-3.861
	c-3.377-0.934-7.055,2.75-6.129,6.121c1.262,4.574,2.609,9.121,3.971,13.838c-1.391,0.781-2.736,1.633-4.041,2.551
	c-2.395,1.859-4.168,1.531-6.092-0.883c-2.262-2.656-4.664-5.188-7.197-7.582c-2.707-2.729-7.617-1.369-8.607,2.395
	c-1.219,4.609-2.359,9.264-3.527,13.859h-8.551c-0.998-4.119-1.996-8.242-2.992-12.371c-0.5-2.064-0.527-4.061-3.465-4.83
	c-2.936-0.771-4.766-0.285-6.627,2.002c-2.029,2.486-4.631,4.531-6.547,7.09c-2.139,2.852-3.949,1.248-5.879,0.129
	c-2.045-1.184-4.461-1.988-3.029-5.443c1.433-3.457,2.224-7.127,3.229-10.688c0.934-3.357-2.736-7.127-6.07-6.188
	c-4.574,1.262-9.121,2.615-13.945,4.012l-3.947-6.747c3.299-3.563,6.137-6.897,9.307-9.897c1.838-1.73,2.209-3.207,1.652-5.701
	c-0.605-2.715-2.139-3.42-4.382-3.932c-4.384-1.006-8.736-2.14-13.104-3.215v-8.552c4.625-1.083,9.264-2.138,13.875-3.257
	c2.83-0.731,4.531-3.62,3.799-6.451c-0.234-0.909-0.707-1.739-1.369-2.405c-3.199-3.335-6.32-6.747-9.612-10.269
	c3.015-7.184,3.015-7.184,10.853-4.889c1.726,0.506,3.457,1.004,5.18,1.519c2.21,0.661,4.041,1.297,6.193-0.948
	c2.151-2.244,2.137-4.02,1.246-6.47c-0.619-1.688-1.039-3.449-1.546-5.175c-2.259-7.709-2.259-7.709,4.988-10.986
	c0.101-0.043,0.235,0-0.371,0c3.854,3.6,7.333,6.833,10.804,10.09c2.6,2.438,7.588,1.126,8.465-2.33
	c1.205-4.73,2.252-9.498,3.363-14.252h8.551c1.076,4.361,2.203,8.715,3.215,13.098c0.512,2.244,1.219,3.785,3.926,4.383
	c2.494,0.557,3.971,0.186,5.701-1.646c3-3.171,6.348-6.015,9.896-9.307l6.756,3.955c-1.369,4.688-2.459,9.199-4.025,13.539
	c-0.871,2.38,0.229,3.478,1.623,4.924c1.398,1.445,2.652,2.423,4.988,1.523c3.221-1.254,6.785-1.688,9.934-3.07
	c3.479-1.524,4.52,0.584,5.852,2.851s2.387,4.041-0.436,6.171c-2.82,2.131-5.314,4.867-7.881,7.404
	c-1.988,2.111-1.891,5.436,0.221,7.424c0.611,0.575,1.354,0.996,2.158,1.227C128.12,69.079,132.78,70.127,137.384,71.224z
	 M110.255,75.5c-0.012-18.158-14.742-32.868-32.9-32.856C59.196,42.657,44.487,57.387,44.5,75.545s14.741,32.868,32.899,32.854
	c0.088,0,0.176,0,0.264,0c18.037-0.199,32.574-14.84,32.645-32.879L110.255,75.5z"/>
</svg>
