<?xml version="1.0" encoding="UTF-8" standalone="no"?>
<!-- Created with Inkscape (http://www.inkscape.org/) -->

<svg
   xmlns:dc="http://purl.org/dc/elements/1.1/"
   xmlns:cc="http://creativecommons.org/ns#"
   xmlns:rdf="http://www.w3.org/1999/02/22-rdf-syntax-ns#"
   xmlns:svg="http://www.w3.org/2000/svg"
   xmlns="http://www.w3.org/2000/svg"
   xmlns:sodipodi="http://sodipodi.sourceforge.net/DTD/sodipodi-0.dtd"
   xmlns:inkscape="http://www.inkscape.org/namespaces/inkscape"
   width="85.346237"
   height="53.206139"
   viewBox="0 0 22.581191 14.077457"
   version="1.1"
   id="svg68490"
   inkscape:version="0.92.0 r15299"
   sodipodi:docname="altri.svg">
  <defs
     id="defs68484" />
  <sodipodi:namedview
     id="base"
     pagecolor="#ffffff"
     bordercolor="#666666"
     borderopacity="1.0"
     inkscape:pageopacity="0.0"
     inkscape:pageshadow="2"
     inkscape:zoom="9.508426"
     inkscape:cx="42.173121"
     inkscape:cy="26.103068"
     inkscape:document-units="mm"
     inkscape:current-layer="layer1"
     showgrid="false"
     fit-margin-top="0"
     fit-margin-left="0"
     fit-margin-right="0"
     fit-margin-bottom="0"
     units="px"
     inkscape:window-width="1280"
     inkscape:window-height="744"
     inkscape:window-x="-4"
     inkscape:window-y="-4"
     inkscape:window-maximized="1" />
  <metadata
     id="metadata68487">
    <rdf:RDF>
      <cc:Work
         rdf:about="">
        <dc:format>image/svg+xml</dc:format>
        <dc:type
           rdf:resource="http://purl.org/dc/dcmitype/StillImage" />
        <dc:title></dc:title>
      </cc:Work>
    </rdf:RDF>
  </metadata>
  <g
     inkscape:label="Layer 1"
     inkscape:groupmode="layer"
     id="layer1"
     transform="translate(-111.30598,-153.0016)">
    <g
       id="g68510"
       transform="translate(0.13229006,-0.1322917)">
      <g
         transform="matrix(0.35277777,0,0,-0.35277777,133.06416,162.14948)"
         id="g65384">
        <path
           inkscape:connector-curvature="0"
           id="path65386"
           style="fill:#7dba00;fill-opacity:1;fill-rule:nonzero;stroke:none"
           d="m 0,0 c -3.264,0.208 -5.563,2.341 -6.636,5.333 -0.59,0.362 -5.611,3.597 -5.72,6.817 -0.09,2.658 1.457,4.733 5.996,8.082 1.255,2.944 3.694,4.949 6.982,4.949 3.319,0 -2.689,-2.014 -6.938,-4.984 C -6.552,19.642 -7.928,16.603 -7.989,12.719 -8.042,9.323 -6.882,6.119 -6.63,5.433 -2.579,2.189 3.319,-0.211 0,0" />
      </g>
      <g
         transform="matrix(0.35277777,0,0,-0.35277777,127.90735,157.86309)"
         id="g65388">
        <path
           inkscape:connector-curvature="0"
           id="path65390"
           style="fill:#7a7a78;fill-opacity:1;fill-rule:evenodd;stroke:none"
           d="m 0,0 c -0.115,-3.369 -5.605,-6.755 -5.772,-6.849 0.028,0.116 1.465,3.649 1.404,7.417 C -4.436,4.906 -6.146,8.191 -6.072,8.137 -1.475,4.755 0.089,2.672 0,0 m -32.747,-23.099 c 0,-1.622 0.374,-2.308 0.592,-2.651 h -4.022 c -0.249,0.375 -0.374,1.029 -0.374,1.435 -1.465,-1.185 -3.18,-1.809 -5.145,-1.809 -2.993,0 -5.363,1.903 -5.363,4.959 0,3.086 2.464,4.458 4.802,4.926 l 1.59,0.312 c 1.372,0.281 3.149,0.593 4.116,0.935 v 0.469 c 0,1.558 -1.341,1.995 -2.993,1.995 -2.214,0 -2.932,-0.655 -2.932,-2.37 l -3.804,0.156 c 0,3.711 3.275,5.145 6.736,5.145 3.398,0 6.797,-0.686 6.797,-5.176 z m -3.804,5.239 c -0.499,-0.25 -1.122,-0.437 -1.809,-0.561 l -2.089,-0.437 c -1.433,-0.281 -2.619,-0.686 -2.619,-2.183 0,-1.185 1.092,-1.964 2.464,-1.964 1.777,0 4.053,0.873 4.053,2.9 z m 7.358,14.312 h 3.805 V -25.75 h -3.805 z m 8.138,-0.842 h 3.804 v -5.581 h 3.399 v -2.744 h -3.399 v -7.983 c 0,-1.247 0.25,-1.933 1.715,-1.933 0.531,0 1.123,0.125 1.684,0.187 v -3.119 c -0.904,-0.187 -1.839,-0.374 -3.024,-0.374 -3.119,0 -4.179,1.404 -4.179,3.805 v 9.417 h -2.307 v 2.744 h 2.307 z m 9.229,-5.581 h 3.805 v -2.183 c 0.966,1.809 2.712,2.557 4.926,2.557 v -3.866 c -2.588,0 -4.926,-1.217 -4.926,-4.647 v -7.64 h -3.805 z m 10.976,0 H 2.954 V -25.749 H -0.85 Z" />
      </g>
    </g>
  </g>
</svg>
